M48
METRIC,TZ
T1C0.508
T2C0.700
T3C0.890
T4C1.570
T5C3.300
%
G90
G05
T1
X88011Y-138328
X89103Y-137033
X128930Y-175082
X130150Y-173761
T2
X70146Y-141997
X71001Y-139648
X132131Y-185852
X134101Y-184313
T3
X55661Y-138265
X56356Y-136358
X57050Y-134450
X57683Y-137915
X57748Y-132533
X58377Y-136008
X59072Y-134100
X59766Y-132193
X60735Y-143623
X61515Y-141481
X64644Y-132883
X65424Y-130740
X74850Y-195470
X75043Y-193433
X75105Y-187592
X76521Y-196640
X76706Y-194597
X76972Y-188899
X78184Y-197805
X78369Y-195762
X79846Y-198969
X80032Y-196926
X84468Y-194148
X86335Y-195455
X132288Y-195031
X134085Y-193627
X137856Y-196797
X139456Y-195548
X139748Y-197578
X141056Y-194298
X141295Y-187994
X141356Y-196322
X142655Y-193048
X142955Y-195072
X143092Y-186590
X144555Y-193823
X153118Y-131038
X153898Y-133180
X157027Y-141778
X157807Y-143921
X159125Y-133449
X159819Y-135356
X160449Y-131881
X160514Y-137264
X161143Y-133789
X161208Y-139171
X161837Y-135697
X162535Y-137614
T4
X54935Y-142864
X60493Y-127594
X70789Y-191541
X84100Y-200861
X134803Y-200312
X147608Y-190308
X158049Y-127891
X163607Y-143161
T5
X52320Y-140018
X56664Y-128084
X70272Y-195366
X80675Y-202650
X138310Y-201925
X148317Y-194106
X161881Y-128391
X166225Y-140325
T0
M30
