G04 #@! TF.FileFunction,Soldermask,Bot*
%FSLAX46Y46*%
G04 Gerber Fmt 4.6, Leading zero omitted, Abs format (unit mm)*
G04 Created by KiCad (PCBNEW 4.0.7) date 10/05/18 09:29:35*
%MOMM*%
%LPD*%
G01*
G04 APERTURE LIST*
%ADD10C,0.100000*%
%ADD11C,1.908000*%
%ADD12C,2.508000*%
%ADD13C,1.778000*%
%ADD14C,3.808000*%
G04 APERTURE END LIST*
D10*
D11*
X71001167Y-139647833D03*
X70146117Y-141997065D03*
X132130800Y-185851800D03*
X134100827Y-184312646D03*
D12*
X70789237Y-191540658D03*
D13*
X86335256Y-195455475D03*
X84467590Y-194147720D03*
X76972348Y-188899496D03*
X75104682Y-187591742D03*
X75043245Y-193432857D03*
X76706124Y-194597217D03*
X78369002Y-195761577D03*
X80031881Y-196925937D03*
X76520693Y-196640356D03*
X78183571Y-197804716D03*
X74849623Y-195470260D03*
X79846450Y-198969076D03*
D14*
X80675000Y-202650000D03*
X70271769Y-195365580D03*
D12*
X84100458Y-200861275D03*
X163607230Y-143161385D03*
D13*
X153118123Y-131037724D03*
X153897929Y-133180223D03*
X157027413Y-141778411D03*
X157807219Y-143920910D03*
X161207871Y-139171387D03*
X160513570Y-137263810D03*
X159819271Y-135356235D03*
X159124969Y-133448659D03*
X161837363Y-135696529D03*
X161143062Y-133788953D03*
X162535084Y-137613502D03*
X160448761Y-131881377D03*
D14*
X161881344Y-128390903D03*
X166225000Y-140325000D03*
D12*
X158049403Y-127891380D03*
X60492520Y-127593940D03*
D13*
X60734703Y-143623471D03*
X61514509Y-141480971D03*
X64643993Y-132882784D03*
X65423799Y-130740285D03*
X59765814Y-132192733D03*
X59071513Y-134100309D03*
X58377212Y-136007885D03*
X57682910Y-137915461D03*
X57050000Y-134450000D03*
X56355699Y-136357576D03*
X57747721Y-132533027D03*
X55661398Y-138265152D03*
D14*
X52320343Y-140018163D03*
X56663998Y-128084067D03*
D12*
X54934692Y-142863945D03*
X134803151Y-200312221D03*
D13*
X143092125Y-186590071D03*
X141295460Y-187993779D03*
X134085162Y-193627082D03*
X132288497Y-195030790D03*
X137856421Y-196797319D03*
X139456083Y-195547526D03*
X141055745Y-194297733D03*
X142655407Y-193047941D03*
X141355731Y-196322211D03*
X142955393Y-195072418D03*
X139748189Y-197578160D03*
X144555055Y-193822625D03*
D14*
X148317385Y-194106477D03*
X138309649Y-201925378D03*
D12*
X147608325Y-190307722D03*
M02*
