G04 #@! TF.FileFunction,Copper,L2,Bot,Signal*
%FSLAX46Y46*%
G04 Gerber Fmt 4.6, Leading zero omitted, Abs format (unit mm)*
G04 Created by KiCad (PCBNEW 4.0.7) date 10/05/18 09:29:34*
%MOMM*%
%LPD*%
G01*
G04 APERTURE LIST*
%ADD10C,0.100000*%
%ADD11C,1.400000*%
%ADD12C,2.000000*%
%ADD13C,1.270000*%
%ADD14C,3.300000*%
%ADD15C,0.812800*%
%ADD16C,0.406400*%
G04 APERTURE END LIST*
D10*
D11*
X71001167Y-139647833D03*
X70146117Y-141997065D03*
X132130800Y-185851800D03*
X134100827Y-184312646D03*
D12*
X70789237Y-191540658D03*
D13*
X86335256Y-195455475D03*
X84467590Y-194147720D03*
X76972348Y-188899496D03*
X75104682Y-187591742D03*
X75043245Y-193432857D03*
X76706124Y-194597217D03*
X78369002Y-195761577D03*
X80031881Y-196925937D03*
X76520693Y-196640356D03*
X78183571Y-197804716D03*
X74849623Y-195470260D03*
X79846450Y-198969076D03*
D14*
X80675000Y-202650000D03*
X70271769Y-195365580D03*
D12*
X84100458Y-200861275D03*
X163607230Y-143161385D03*
D13*
X153118123Y-131037724D03*
X153897929Y-133180223D03*
X157027413Y-141778411D03*
X157807219Y-143920910D03*
X161207871Y-139171387D03*
X160513570Y-137263810D03*
X159819271Y-135356235D03*
X159124969Y-133448659D03*
X161837363Y-135696529D03*
X161143062Y-133788953D03*
X162535084Y-137613502D03*
X160448761Y-131881377D03*
D14*
X161881344Y-128390903D03*
X166225000Y-140325000D03*
D12*
X158049403Y-127891380D03*
X60492520Y-127593940D03*
D13*
X60734703Y-143623471D03*
X61514509Y-141480971D03*
X64643993Y-132882784D03*
X65423799Y-130740285D03*
X59765814Y-132192733D03*
X59071513Y-134100309D03*
X58377212Y-136007885D03*
X57682910Y-137915461D03*
X57050000Y-134450000D03*
X56355699Y-136357576D03*
X57747721Y-132533027D03*
X55661398Y-138265152D03*
D14*
X52320343Y-140018163D03*
X56663998Y-128084067D03*
D12*
X54934692Y-142863945D03*
X134803151Y-200312221D03*
D13*
X143092125Y-186590071D03*
X141295460Y-187993779D03*
X134085162Y-193627082D03*
X132288497Y-195030790D03*
X137856421Y-196797319D03*
X139456083Y-195547526D03*
X141055745Y-194297733D03*
X142655407Y-193047941D03*
X141355731Y-196322211D03*
X142955393Y-195072418D03*
X139748189Y-197578160D03*
X144555055Y-193822625D03*
D14*
X148317385Y-194106477D03*
X138309649Y-201925378D03*
D12*
X147608325Y-190307722D03*
D15*
X89103200Y-137033000D03*
X88011000Y-138328400D03*
X128930400Y-175082200D03*
X130149600Y-173761400D03*
D16*
X126024640Y-175021240D02*
X126019560Y-175026320D01*
X126024640Y-175021240D02*
X124231400Y-175021240D01*
X124231400Y-175021240D02*
X124226320Y-175026320D01*
X156997400Y-132638800D02*
X160448761Y-131881377D01*
X155270200Y-134213600D02*
X156997400Y-132638800D01*
X145948400Y-136575800D02*
X155270200Y-134213600D01*
X89103200Y-137033000D02*
X145948400Y-136575800D01*
X88011000Y-138328400D02*
X146558000Y-137363200D01*
X156083000Y-134848600D02*
X159124969Y-133448659D01*
X146558000Y-137363200D02*
X156083000Y-134848600D01*
X66167000Y-136982200D02*
X59071513Y-134100309D01*
X86131400Y-136982200D02*
X66167000Y-136982200D01*
X88011000Y-138328400D02*
X86131400Y-136982200D01*
X80137000Y-195046600D02*
X78183571Y-197804716D01*
X100787200Y-175006000D02*
X80137000Y-195046600D01*
X128930400Y-175082200D02*
X100787200Y-175006000D01*
X57747721Y-132533027D02*
X55956200Y-133197600D01*
X65811400Y-138176000D02*
X71001167Y-139647833D01*
X56997600Y-139979400D02*
X65811400Y-138176000D01*
X54838600Y-139268200D02*
X56997600Y-139979400D01*
X54254400Y-137668000D02*
X54838600Y-139268200D01*
X55956200Y-133197600D02*
X54254400Y-137668000D01*
X71001167Y-139647833D02*
X88265000Y-139674600D01*
X88265000Y-139674600D02*
X146786600Y-138430000D01*
X146786600Y-138430000D02*
X159819271Y-135356235D01*
X70146117Y-141997065D02*
X75234800Y-142113000D01*
X159258000Y-136677400D02*
X161837363Y-135696529D01*
X147294600Y-139446000D02*
X159258000Y-136677400D01*
X126441200Y-139827000D02*
X147294600Y-139446000D01*
X101117400Y-140385800D02*
X126441200Y-139827000D01*
X78587600Y-140462000D02*
X101117400Y-140385800D01*
X75234800Y-142113000D02*
X78587600Y-140462000D01*
X130149600Y-173761400D02*
X130149600Y-179451000D01*
X138252200Y-193776600D02*
X139456083Y-195547526D01*
X134721600Y-192176400D02*
X138252200Y-193776600D01*
X132283200Y-191033400D02*
X134721600Y-192176400D01*
X128955800Y-186893200D02*
X132283200Y-191033400D01*
X128828800Y-181686200D02*
X128955800Y-186893200D01*
X130149600Y-179451000D02*
X128828800Y-181686200D01*
X80873600Y-192913000D02*
X76706124Y-194597217D01*
X100355400Y-173990000D02*
X80873600Y-192913000D01*
X130149600Y-173761400D02*
X100355400Y-173990000D01*
X132130800Y-185851800D02*
X132207000Y-173964600D01*
X76885800Y-192532000D02*
X74849623Y-195470260D01*
X80619600Y-191541400D02*
X76885800Y-192532000D01*
X100025200Y-172669200D02*
X80619600Y-191541400D01*
X130733800Y-172542200D02*
X100025200Y-172669200D01*
X132207000Y-173964600D02*
X130733800Y-172542200D01*
X132130800Y-185851800D02*
X135686800Y-189839600D01*
X142316200Y-197662800D02*
X139748189Y-197578160D01*
X145821400Y-194970400D02*
X142316200Y-197662800D01*
X145796000Y-192201800D02*
X145821400Y-194970400D01*
X144424400Y-190855600D02*
X145796000Y-192201800D01*
X135686800Y-189839600D02*
X144424400Y-190855600D01*
X134100827Y-184312646D02*
X134112000Y-174117000D01*
X76403200Y-191490600D02*
X75043245Y-193432857D01*
X80010000Y-190550800D02*
X76403200Y-191490600D01*
X99187000Y-171653200D02*
X80010000Y-190550800D01*
X131191000Y-171373800D02*
X99187000Y-171653200D01*
X134112000Y-174117000D02*
X131191000Y-171373800D01*
X162631728Y-140294896D02*
X160070800Y-141198600D01*
X159842200Y-130200400D02*
X154989117Y-129843959D01*
X73101200Y-193268600D02*
X73273877Y-191455494D01*
X81864200Y-199999600D02*
X85741293Y-196892224D01*
X85741293Y-196892224D02*
X85741293Y-196892225D01*
X136372600Y-199237600D02*
X131835841Y-197112789D01*
X131927600Y-197307200D02*
X131927600Y-197211726D01*
X131835841Y-197112789D02*
X131927600Y-197307200D01*
X145832761Y-188846111D02*
X148539200Y-188747400D01*
X149301200Y-189433200D02*
X149510609Y-191646950D01*
X148539200Y-188747400D02*
X149301200Y-189433200D01*
X86335256Y-195455475D02*
X88188800Y-191846200D01*
X88188800Y-191846200D02*
X104673400Y-181229000D01*
X104673400Y-181229000D02*
X114452400Y-181229000D01*
X114452400Y-181229000D02*
X129743200Y-190779400D01*
X129743200Y-190779400D02*
X130225800Y-195376800D01*
X130225800Y-195376800D02*
X131927600Y-197211726D01*
X131927600Y-197211726D02*
X134803151Y-200312221D01*
X134803151Y-200312221D02*
X136372600Y-199237600D01*
X136372600Y-199237600D02*
X141198600Y-199923400D01*
X141198600Y-199923400D02*
X145745200Y-196418200D01*
X145745200Y-196418200D02*
X148818600Y-197027800D01*
X148818600Y-197027800D02*
X151409400Y-194538600D01*
X151409400Y-194538600D02*
X150876000Y-192608200D01*
X150876000Y-192608200D02*
X149510609Y-191646950D01*
X149510609Y-191646950D02*
X147608325Y-190307722D01*
X86335256Y-195455475D02*
X85741293Y-196892225D01*
X85741293Y-196892225D02*
X84100458Y-200861275D01*
X84100458Y-200861275D02*
X81864200Y-199999600D01*
X73101200Y-193268600D02*
X73101200Y-193268600D01*
X73101200Y-193268600D02*
X70789237Y-191540658D01*
X73101200Y-195884800D02*
X73101200Y-193268600D01*
X79171800Y-200380600D02*
X73101200Y-195884800D01*
X81864200Y-199999600D02*
X79171800Y-200380600D01*
X70789237Y-191540658D02*
X73273877Y-191455494D01*
X73273877Y-191455494D02*
X74472800Y-191414400D01*
X70612000Y-144195800D02*
X60734703Y-143623471D01*
X84429600Y-148361400D02*
X70612000Y-144195800D01*
X84963000Y-183616600D02*
X84429600Y-148361400D01*
X79781400Y-189179200D02*
X84963000Y-183616600D01*
X74472800Y-191414400D02*
X79781400Y-189179200D01*
X60734703Y-143623471D02*
X54934692Y-142863945D01*
X153118123Y-131037724D02*
X145669000Y-135229600D01*
X66598800Y-128981200D02*
X60492520Y-127593940D01*
X70408800Y-135331200D02*
X66598800Y-128981200D01*
X145669000Y-135229600D02*
X70408800Y-135331200D01*
X153118123Y-131037724D02*
X154989117Y-129843959D01*
X154989117Y-129843959D02*
X158049403Y-127891380D01*
X158049403Y-127891380D02*
X159842200Y-130200400D01*
X162610800Y-140233400D02*
X162631728Y-140294896D01*
X162631728Y-140294896D02*
X163607230Y-143161385D01*
X164414200Y-137668000D02*
X162610800Y-140233400D01*
X162204400Y-131165600D02*
X164414200Y-137668000D01*
X159842200Y-130200400D02*
X162204400Y-131165600D01*
X163607230Y-143161385D02*
X160070800Y-141198600D01*
X160070800Y-141198600D02*
X156057600Y-139928600D01*
X135661400Y-181940200D02*
X143092125Y-186590071D01*
X135585200Y-173253400D02*
X135661400Y-181940200D01*
X133705600Y-171145200D02*
X135585200Y-173253400D01*
X133477000Y-146888200D02*
X133705600Y-171145200D01*
X156057600Y-139928600D02*
X133477000Y-146888200D01*
X143092125Y-186590071D02*
X145832761Y-188846111D01*
X145832761Y-188846111D02*
X147608325Y-190307722D01*
M02*
