%FSLAX45Y45*%
G04 Gerber Fmt 4.5, Leading zero omitted, Abs format (unit mm)*
G04 Created by KiCad (PCBNEW 4.0.7) date 10/05/18 09:30:21*
%MOMM*%
%LPD*%
G01*
G04 APERTURE LIST*
%ADD10C,0.127000*%
%ADD11C,0.203200*%
%ADD12C,0.200000*%
%ADD13C,0.300000*%
G04 APERTURE END LIST*
D10*
D11*
X11137863Y-9345000D02*
G75*
G03X11137863Y-9345000I-215363J0D01*
G01*
X11139971Y-21077500D02*
G75*
G03X11139971Y-21077500I-214971J0D01*
G01*
X12052500Y-10807500D02*
X11862500Y-10770000D01*
X12395000Y-10910000D02*
X12052500Y-10807500D01*
X12800000Y-11075000D02*
X12395000Y-10910000D01*
X13177500Y-11265000D02*
X12800000Y-11075000D01*
X13545000Y-11502500D02*
X13177500Y-11265000D01*
X13882500Y-11765000D02*
X13545000Y-11502500D01*
X14172500Y-12040000D02*
X13882500Y-11765000D01*
X14445000Y-12345000D02*
X14172500Y-12040000D01*
X14725000Y-12725000D02*
X14445000Y-12345000D01*
X14882500Y-12995000D02*
X14725000Y-12725000D01*
X12787500Y-12675000D02*
X14882500Y-12995000D01*
X11862500Y-10770000D02*
X12787500Y-12675000D01*
X9915000Y-10770000D02*
X10045000Y-10745000D01*
X9720000Y-10820000D02*
X9915000Y-10770000D01*
X9452500Y-10900000D02*
X9720000Y-10820000D01*
X9240000Y-10982500D02*
X9452500Y-10900000D01*
X9022500Y-11072500D02*
X9240000Y-10982500D01*
X8820000Y-11175000D02*
X9020000Y-11072500D01*
X8642500Y-11265000D02*
X8820000Y-11175000D01*
X8512500Y-11352500D02*
X8642500Y-11265000D01*
X8367500Y-11442500D02*
X8512500Y-11352500D01*
X8277500Y-11497500D02*
X8367500Y-11442500D01*
X8175000Y-11582500D02*
X8277500Y-11497500D01*
X8052500Y-11672500D02*
X8175000Y-11582500D01*
X7950000Y-11760000D02*
X8052500Y-11672500D01*
X7850000Y-11852500D02*
X7950000Y-11760000D01*
X7745000Y-11947500D02*
X7850000Y-11852500D01*
X7665000Y-12015000D02*
X7745000Y-11947500D01*
X7500000Y-12202500D02*
X7665000Y-12015000D01*
X7332500Y-12395000D02*
X7500000Y-12202500D01*
X7135000Y-12662500D02*
X7332500Y-12395000D01*
X7035000Y-12805000D02*
X7135000Y-12662500D01*
X6947500Y-12947500D02*
X7035000Y-12805000D01*
X6932500Y-12977500D02*
X6947500Y-12947500D01*
X6940000Y-12987500D02*
X6932500Y-12977500D01*
X9105000Y-12667500D02*
X6940000Y-12987500D01*
X10045000Y-10745000D02*
X9105000Y-12667500D01*
X7375000Y-18120000D02*
X7565000Y-18340000D01*
X7197500Y-17885000D02*
X7375000Y-18120000D01*
X7055000Y-17677500D02*
X7197500Y-17885000D01*
X7002500Y-17585000D02*
X7055000Y-17677500D01*
X6877500Y-17367500D02*
X7002500Y-17585000D01*
X6782500Y-17175000D02*
X6877500Y-17367500D01*
X6680000Y-16955000D02*
X6782500Y-17175000D01*
X6610000Y-16740000D02*
X6680000Y-16955000D01*
X6522500Y-16482500D02*
X6610000Y-16740000D01*
X6462500Y-16232500D02*
X6522500Y-16482500D01*
X6420000Y-16052500D02*
X6462500Y-16232500D01*
X6402500Y-15942500D02*
X6420000Y-16052500D01*
X6370000Y-15720000D02*
X6402500Y-15942500D01*
X6352500Y-15560000D02*
X6370000Y-15720000D01*
X6347500Y-15427500D02*
X6352500Y-15560000D01*
X6347500Y-15012500D02*
X6347500Y-15427500D01*
X6360000Y-14792500D02*
X6347500Y-15012500D01*
X6372500Y-14727500D02*
X6360000Y-14792500D01*
X6390000Y-14685000D02*
X6372500Y-14727500D01*
X6430000Y-14715000D02*
X6390000Y-14685000D01*
X7940000Y-16182500D02*
X6430000Y-14715000D01*
X7950000Y-16200000D02*
X7940000Y-16182500D01*
X7567500Y-18340000D02*
X7950000Y-16200000D01*
X9007500Y-19375000D02*
X10922500Y-18357500D01*
X9202500Y-19467500D02*
X9007500Y-19375000D01*
X9435000Y-19550000D02*
X9202500Y-19467500D01*
X9675000Y-19627500D02*
X9435000Y-19550000D01*
X9915000Y-19687500D02*
X9675000Y-19627500D01*
X10150000Y-19732500D02*
X9915000Y-19687500D01*
X10427500Y-19772500D02*
X10150000Y-19732500D01*
X10557500Y-19785000D02*
X10427500Y-19772500D01*
X10837500Y-19790000D02*
X10557500Y-19785000D01*
X11145000Y-19780000D02*
X10837500Y-19790000D01*
X11370000Y-19765000D02*
X11145000Y-19780000D01*
X11527500Y-19752500D02*
X11370000Y-19765000D01*
X11657500Y-19735000D02*
X11527500Y-19752500D01*
X12050000Y-19647500D02*
X11657500Y-19735000D01*
X12337500Y-19565000D02*
X12050000Y-19647500D01*
X12542500Y-19492500D02*
X12337500Y-19565000D01*
X12750000Y-19407500D02*
X12542500Y-19492500D01*
X12825000Y-19370000D02*
X12750000Y-19407500D01*
X10925000Y-18357500D02*
X12825000Y-19370000D01*
X15465000Y-14810000D02*
X15452500Y-14737500D01*
X15470000Y-15087500D02*
X15465000Y-14810000D01*
X15470000Y-15387500D02*
X15470000Y-15087500D01*
X15452500Y-15727500D02*
X15470000Y-15387500D01*
X15435000Y-15877500D02*
X15452500Y-15727500D01*
X15380000Y-16165000D02*
X15435000Y-15877500D01*
X15305000Y-16452500D02*
X15380000Y-16165000D01*
X15262500Y-16602500D02*
X15305000Y-16452500D01*
X15157500Y-16915000D02*
X15262500Y-16602500D01*
X15067500Y-17115000D02*
X15157500Y-16915000D01*
X14987500Y-17280000D02*
X15067500Y-17115000D01*
X14882500Y-17470000D02*
X14987500Y-17280000D01*
X14732500Y-17717500D02*
X14882500Y-17470000D01*
X14570000Y-17937500D02*
X14732500Y-17717500D01*
X14440000Y-18130000D02*
X14570000Y-17937500D01*
X14357500Y-18222500D02*
X14440000Y-18130000D01*
X14275000Y-18272500D02*
X14357500Y-18222500D01*
X13915000Y-16192500D02*
X14275000Y-18272500D01*
X15450000Y-14735000D02*
X13915000Y-16192500D01*
X17290276Y-15214600D02*
G75*
G03X17290276Y-15214600I-6380976J0D01*
G01*
D12*
X8775700Y-13807440D02*
X8826500Y-13858240D01*
X8826500Y-13807440D02*
X8775700Y-13858240D01*
X8884920Y-13677900D02*
X8935720Y-13728700D01*
X8935720Y-13677900D02*
X8884920Y-13728700D01*
X12867640Y-17482820D02*
X12918440Y-17533620D01*
X12918440Y-17482820D02*
X12867640Y-17533620D01*
X12989560Y-17350740D02*
X13040360Y-17401540D01*
X13040360Y-17350740D02*
X12989560Y-17401540D01*
X7049612Y-14199706D02*
G75*
G03X7049612Y-14199706I-35000J0D01*
G01*
X7135117Y-13964783D02*
G75*
G03X7135117Y-13964783I-35000J0D01*
G01*
X13248080Y-18585180D02*
G75*
G03X13248080Y-18585180I-35000J0D01*
G01*
X13445083Y-18431265D02*
G75*
G03X13445083Y-18431265I-35000J0D01*
G01*
X5566140Y-13782015D02*
X5566140Y-13871015D01*
X5521640Y-13826515D02*
X5610640Y-13826515D01*
X5635570Y-13591258D02*
X5635570Y-13680258D01*
X5591070Y-13635758D02*
X5680070Y-13635758D01*
X5705000Y-13400500D02*
X5705000Y-13489500D01*
X5660500Y-13445000D02*
X5749500Y-13445000D01*
X5768291Y-13747046D02*
X5768291Y-13836046D01*
X5723791Y-13791546D02*
X5812791Y-13791546D01*
X5774772Y-13208803D02*
X5774772Y-13297803D01*
X5730272Y-13253303D02*
X5819272Y-13253303D01*
X5837721Y-13556288D02*
X5837721Y-13645288D01*
X5793221Y-13600788D02*
X5882221Y-13600788D01*
X5907151Y-13365531D02*
X5907151Y-13454531D01*
X5862651Y-13410031D02*
X5951651Y-13410031D01*
X5976581Y-13174773D02*
X5976581Y-13263773D01*
X5932081Y-13219273D02*
X6021081Y-13219273D01*
X6073470Y-14317847D02*
X6073470Y-14406847D01*
X6028970Y-14362347D02*
X6117970Y-14362347D01*
X6151451Y-14103597D02*
X6151451Y-14192597D01*
X6106951Y-14148097D02*
X6195951Y-14148097D01*
X6464399Y-13243778D02*
X6464399Y-13332778D01*
X6419899Y-13288278D02*
X6508899Y-13288278D01*
X6542380Y-13029528D02*
X6542380Y-13118528D01*
X6497880Y-13074028D02*
X6586880Y-13074028D01*
X7484962Y-19502526D02*
X7484962Y-19591526D01*
X7440462Y-19547026D02*
X7529462Y-19547026D01*
X7504324Y-19298786D02*
X7504324Y-19387786D01*
X7459824Y-19343286D02*
X7548824Y-19343286D01*
X7510468Y-18714674D02*
X7510468Y-18803674D01*
X7465968Y-18759174D02*
X7554968Y-18759174D01*
X7652069Y-19619536D02*
X7652069Y-19708536D01*
X7607569Y-19664036D02*
X7696569Y-19664036D01*
X7670612Y-19415222D02*
X7670612Y-19504222D01*
X7626112Y-19459722D02*
X7715112Y-19459722D01*
X7697235Y-18845450D02*
X7697235Y-18934450D01*
X7652735Y-18889950D02*
X7741735Y-18889950D01*
X7818357Y-19735972D02*
X7818357Y-19824972D01*
X7773857Y-19780472D02*
X7862857Y-19780472D01*
X7836900Y-19531658D02*
X7836900Y-19620658D01*
X7792400Y-19576158D02*
X7881400Y-19576158D01*
X7984645Y-19852408D02*
X7984645Y-19941408D01*
X7940145Y-19896908D02*
X8029145Y-19896908D01*
X8003188Y-19648094D02*
X8003188Y-19737094D01*
X7958688Y-19692594D02*
X8047688Y-19692594D01*
X8446759Y-19370272D02*
X8446759Y-19459272D01*
X8402259Y-19414772D02*
X8491259Y-19414772D01*
X8633526Y-19501048D02*
X8633526Y-19590048D01*
X8589026Y-19545548D02*
X8678026Y-19545548D01*
X13228850Y-19458579D02*
X13228850Y-19547579D01*
X13184350Y-19503079D02*
X13273350Y-19503079D01*
X13408516Y-19318208D02*
X13408516Y-19407208D01*
X13364016Y-19362708D02*
X13453016Y-19362708D01*
X13785642Y-19635232D02*
X13785642Y-19724232D01*
X13741142Y-19679732D02*
X13830142Y-19679732D01*
X13945608Y-19510253D02*
X13945608Y-19599253D01*
X13901108Y-19554753D02*
X13990108Y-19554753D01*
X13974819Y-19713316D02*
X13974819Y-19802316D01*
X13930319Y-19757816D02*
X14019319Y-19757816D01*
X14105574Y-19385273D02*
X14105574Y-19474273D01*
X14061074Y-19429773D02*
X14150074Y-19429773D01*
X14129546Y-18754878D02*
X14129546Y-18843878D01*
X14085046Y-18799378D02*
X14174046Y-18799378D01*
X14135573Y-19587721D02*
X14135573Y-19676721D01*
X14091073Y-19632221D02*
X14180073Y-19632221D01*
X14265541Y-19260294D02*
X14265541Y-19349294D01*
X14221041Y-19304794D02*
X14310041Y-19304794D01*
X14295539Y-19462742D02*
X14295539Y-19551742D01*
X14251039Y-19507242D02*
X14340039Y-19507242D01*
X14309212Y-18614507D02*
X14309212Y-18703507D01*
X14264712Y-18659007D02*
X14353712Y-18659007D01*
X14455505Y-19337763D02*
X14455505Y-19426763D01*
X14411005Y-19382263D02*
X14500005Y-19382263D01*
X15311812Y-13059272D02*
X15311812Y-13148272D01*
X15267312Y-13103772D02*
X15356312Y-13103772D01*
X15389793Y-13273522D02*
X15389793Y-13362522D01*
X15345293Y-13318022D02*
X15434293Y-13318022D01*
X15702741Y-14133341D02*
X15702741Y-14222341D01*
X15658241Y-14177841D02*
X15747241Y-14177841D01*
X15780722Y-14347591D02*
X15780722Y-14436591D01*
X15736222Y-14392091D02*
X15825222Y-14392091D01*
X15912497Y-13300366D02*
X15912497Y-13389366D01*
X15867997Y-13344866D02*
X15956997Y-13344866D01*
X15981927Y-13491123D02*
X15981927Y-13580123D01*
X15937427Y-13535623D02*
X16026427Y-13535623D01*
X16044876Y-13143638D02*
X16044876Y-13232638D01*
X16000376Y-13188138D02*
X16089376Y-13188138D01*
X16051357Y-13681881D02*
X16051357Y-13770881D01*
X16006857Y-13726381D02*
X16095857Y-13726381D01*
X16114306Y-13334395D02*
X16114306Y-13423395D01*
X16069806Y-13378895D02*
X16158806Y-13378895D01*
X16120787Y-13872639D02*
X16120787Y-13961639D01*
X16076287Y-13917139D02*
X16165287Y-13917139D01*
X16183736Y-13525153D02*
X16183736Y-13614153D01*
X16139236Y-13569653D02*
X16228236Y-13569653D01*
X16253508Y-13716850D02*
X16253508Y-13805850D01*
X16209008Y-13761350D02*
X16298008Y-13761350D01*
X5548978Y-14341903D02*
X5548978Y-14230886D01*
X5437961Y-14230886D01*
X5437961Y-14341903D01*
X5548978Y-14341903D01*
X6104760Y-12814902D02*
X6104760Y-12703886D01*
X5993744Y-12703886D01*
X5993744Y-12814902D01*
X6104760Y-12814902D01*
X7134432Y-19209574D02*
X7134432Y-19098557D01*
X7023415Y-19098557D01*
X7023415Y-19209574D01*
X7134432Y-19209574D01*
X8465554Y-20141636D02*
X8465554Y-20030619D01*
X8354537Y-20030619D01*
X8354537Y-20141636D01*
X8465554Y-20141636D01*
X13535823Y-20086731D02*
X13535823Y-19975714D01*
X13424807Y-19975714D01*
X13424807Y-20086731D01*
X13535823Y-20086731D01*
X14816341Y-19086281D02*
X14816341Y-18975264D01*
X14705324Y-18975264D01*
X14705324Y-19086281D01*
X14816341Y-19086281D01*
X15860449Y-12844646D02*
X15860449Y-12733630D01*
X15749432Y-12733630D01*
X15749432Y-12844646D01*
X15860449Y-12844646D01*
X16416231Y-14371647D02*
X16416231Y-14260630D01*
X16305215Y-14260630D01*
X16305215Y-14371647D01*
X16416231Y-14371647D01*
X5232034Y-14166816D02*
X5397034Y-14001816D01*
X5232034Y-13836816D01*
X5067034Y-14001816D01*
X5232034Y-14166816D01*
X5666400Y-12973407D02*
X5831400Y-12808407D01*
X5666400Y-12643407D01*
X5501400Y-12808407D01*
X5666400Y-12973407D01*
X7027177Y-19701558D02*
X7192177Y-19536558D01*
X7027177Y-19371558D01*
X6862177Y-19536558D01*
X7027177Y-19701558D01*
X8067500Y-20430000D02*
X8232500Y-20265000D01*
X8067500Y-20100000D01*
X7902500Y-20265000D01*
X8067500Y-20430000D01*
X13830965Y-20357538D02*
X13995965Y-20192538D01*
X13830965Y-20027538D01*
X13665965Y-20192538D01*
X13830965Y-20357538D01*
X14831738Y-19575648D02*
X14996738Y-19410648D01*
X14831738Y-19245648D01*
X14666738Y-19410648D01*
X14831738Y-19575648D01*
X16188134Y-13004090D02*
X16353134Y-12839090D01*
X16188134Y-12674090D01*
X16023134Y-12839090D01*
X16188134Y-13004090D01*
X16622500Y-14197500D02*
X16787500Y-14032500D01*
X16622500Y-13867500D01*
X16457500Y-14032500D01*
X16622500Y-14197500D01*
D13*
X4789593Y-22071450D02*
X4789593Y-21771450D01*
X4861021Y-21771450D01*
X4903878Y-21785736D01*
X4932450Y-21814307D01*
X4946735Y-21842879D01*
X4961021Y-21900022D01*
X4961021Y-21942879D01*
X4946735Y-22000022D01*
X4932450Y-22028593D01*
X4903878Y-22057165D01*
X4861021Y-22071450D01*
X4789593Y-22071450D01*
X5089593Y-22071450D02*
X5089593Y-21871450D01*
X5089593Y-21928593D02*
X5103878Y-21900022D01*
X5118164Y-21885736D01*
X5146735Y-21871450D01*
X5175307Y-21871450D01*
X5275307Y-22071450D02*
X5275307Y-21871450D01*
X5275307Y-21771450D02*
X5261021Y-21785736D01*
X5275307Y-21800022D01*
X5289593Y-21785736D01*
X5275307Y-21771450D01*
X5275307Y-21800022D01*
X5461021Y-22071450D02*
X5432450Y-22057165D01*
X5418164Y-22028593D01*
X5418164Y-21771450D01*
X5618164Y-22071450D02*
X5589593Y-22057165D01*
X5575307Y-22028593D01*
X5575307Y-21771450D01*
X5961021Y-22071450D02*
X5961021Y-21771450D01*
X6061021Y-21985736D01*
X6161021Y-21771450D01*
X6161021Y-22071450D01*
X6432450Y-22071450D02*
X6432450Y-21914307D01*
X6418164Y-21885736D01*
X6389593Y-21871450D01*
X6332450Y-21871450D01*
X6303878Y-21885736D01*
X6432450Y-22057165D02*
X6403878Y-22071450D01*
X6332450Y-22071450D01*
X6303878Y-22057165D01*
X6289593Y-22028593D01*
X6289593Y-22000022D01*
X6303878Y-21971450D01*
X6332450Y-21957165D01*
X6403878Y-21957165D01*
X6432450Y-21942879D01*
X6575307Y-21871450D02*
X6575307Y-22171450D01*
X6575307Y-21885736D02*
X6603878Y-21871450D01*
X6661021Y-21871450D01*
X6689593Y-21885736D01*
X6703878Y-21900022D01*
X6718164Y-21928593D01*
X6718164Y-22014307D01*
X6703878Y-22042879D01*
X6689593Y-22057165D01*
X6661021Y-22071450D01*
X6603878Y-22071450D01*
X6575307Y-22057165D01*
X6846735Y-22042879D02*
X6861021Y-22057165D01*
X6846735Y-22071450D01*
X6832450Y-22057165D01*
X6846735Y-22042879D01*
X6846735Y-22071450D01*
X6846735Y-21885736D02*
X6861021Y-21900022D01*
X6846735Y-21914307D01*
X6832450Y-21900022D01*
X6846735Y-21885736D01*
X6846735Y-21914307D01*
X4467364Y-22540336D02*
X4518164Y-22591136D01*
X4518164Y-22540336D02*
X4467364Y-22591136D01*
X4846735Y-22401450D02*
X4875307Y-22401450D01*
X4903878Y-22415736D01*
X4918164Y-22430022D01*
X4932450Y-22458593D01*
X4946735Y-22515736D01*
X4946735Y-22587165D01*
X4932450Y-22644307D01*
X4918164Y-22672879D01*
X4903878Y-22687165D01*
X4875307Y-22701450D01*
X4846735Y-22701450D01*
X4818164Y-22687165D01*
X4803878Y-22672879D01*
X4789593Y-22644307D01*
X4775307Y-22587165D01*
X4775307Y-22515736D01*
X4789593Y-22458593D01*
X4803878Y-22430022D01*
X4818164Y-22415736D01*
X4846735Y-22401450D01*
X5075307Y-22672879D02*
X5089593Y-22687165D01*
X5075307Y-22701450D01*
X5061021Y-22687165D01*
X5075307Y-22672879D01*
X5075307Y-22701450D01*
X5361021Y-22401450D02*
X5218164Y-22401450D01*
X5203878Y-22544307D01*
X5218164Y-22530022D01*
X5246735Y-22515736D01*
X5318164Y-22515736D01*
X5346735Y-22530022D01*
X5361021Y-22544307D01*
X5375307Y-22572879D01*
X5375307Y-22644307D01*
X5361021Y-22672879D01*
X5346735Y-22687165D01*
X5318164Y-22701450D01*
X5246735Y-22701450D01*
X5218164Y-22687165D01*
X5203878Y-22672879D01*
X5661021Y-22701450D02*
X5489593Y-22701450D01*
X5575307Y-22701450D02*
X5575307Y-22401450D01*
X5546735Y-22444307D01*
X5518164Y-22472879D01*
X5489593Y-22487165D01*
X5789593Y-22701450D02*
X5789593Y-22501450D01*
X5789593Y-22530022D02*
X5803878Y-22515736D01*
X5832450Y-22501450D01*
X5875307Y-22501450D01*
X5903878Y-22515736D01*
X5918164Y-22544307D01*
X5918164Y-22701450D01*
X5918164Y-22544307D02*
X5932450Y-22515736D01*
X5961021Y-22501450D01*
X6003878Y-22501450D01*
X6032450Y-22515736D01*
X6046735Y-22544307D01*
X6046735Y-22701450D01*
X6189593Y-22701450D02*
X6189593Y-22501450D01*
X6189593Y-22530022D02*
X6203878Y-22515736D01*
X6232450Y-22501450D01*
X6275307Y-22501450D01*
X6303878Y-22515736D01*
X6318164Y-22544307D01*
X6318164Y-22701450D01*
X6318164Y-22544307D02*
X6332450Y-22515736D01*
X6361021Y-22501450D01*
X6403878Y-22501450D01*
X6432450Y-22515736D01*
X6446735Y-22544307D01*
X6446735Y-22701450D01*
X7032450Y-22387165D02*
X6775307Y-22772879D01*
X7418164Y-22401450D02*
X7446735Y-22401450D01*
X7475307Y-22415736D01*
X7489592Y-22430022D01*
X7503878Y-22458593D01*
X7518164Y-22515736D01*
X7518164Y-22587165D01*
X7503878Y-22644307D01*
X7489592Y-22672879D01*
X7475307Y-22687165D01*
X7446735Y-22701450D01*
X7418164Y-22701450D01*
X7389592Y-22687165D01*
X7375307Y-22672879D01*
X7361021Y-22644307D01*
X7346735Y-22587165D01*
X7346735Y-22515736D01*
X7361021Y-22458593D01*
X7375307Y-22430022D01*
X7389592Y-22415736D01*
X7418164Y-22401450D01*
X7646735Y-22672879D02*
X7661021Y-22687165D01*
X7646735Y-22701450D01*
X7632450Y-22687165D01*
X7646735Y-22672879D01*
X7646735Y-22701450D01*
X7846735Y-22401450D02*
X7875307Y-22401450D01*
X7903878Y-22415736D01*
X7918164Y-22430022D01*
X7932450Y-22458593D01*
X7946735Y-22515736D01*
X7946735Y-22587165D01*
X7932450Y-22644307D01*
X7918164Y-22672879D01*
X7903878Y-22687165D01*
X7875307Y-22701450D01*
X7846735Y-22701450D01*
X7818164Y-22687165D01*
X7803878Y-22672879D01*
X7789592Y-22644307D01*
X7775307Y-22587165D01*
X7775307Y-22515736D01*
X7789592Y-22458593D01*
X7803878Y-22430022D01*
X7818164Y-22415736D01*
X7846735Y-22401450D01*
X8061021Y-22430022D02*
X8075307Y-22415736D01*
X8103878Y-22401450D01*
X8175307Y-22401450D01*
X8203878Y-22415736D01*
X8218164Y-22430022D01*
X8232450Y-22458593D01*
X8232450Y-22487165D01*
X8218164Y-22530022D01*
X8046735Y-22701450D01*
X8232450Y-22701450D01*
X8418164Y-22401450D02*
X8446735Y-22401450D01*
X8475307Y-22415736D01*
X8489593Y-22430022D01*
X8503878Y-22458593D01*
X8518164Y-22515736D01*
X8518164Y-22587165D01*
X8503878Y-22644307D01*
X8489593Y-22672879D01*
X8475307Y-22687165D01*
X8446735Y-22701450D01*
X8418164Y-22701450D01*
X8389593Y-22687165D01*
X8375307Y-22672879D01*
X8361021Y-22644307D01*
X8346735Y-22587165D01*
X8346735Y-22515736D01*
X8361021Y-22458593D01*
X8375307Y-22430022D01*
X8389593Y-22415736D01*
X8418164Y-22401450D01*
X8632450Y-22401450D02*
X8632450Y-22458593D01*
X8746735Y-22401450D02*
X8746735Y-22458593D01*
X9189593Y-22815736D02*
X9175307Y-22801450D01*
X9146735Y-22758593D01*
X9132450Y-22730022D01*
X9118164Y-22687165D01*
X9103878Y-22615736D01*
X9103878Y-22558593D01*
X9118164Y-22487165D01*
X9132450Y-22444307D01*
X9146735Y-22415736D01*
X9175307Y-22372879D01*
X9189593Y-22358593D01*
X9432450Y-22501450D02*
X9432450Y-22701450D01*
X9361021Y-22387165D02*
X9289593Y-22601450D01*
X9475307Y-22601450D01*
X9818164Y-22701450D02*
X9818164Y-22401450D01*
X9946735Y-22701450D02*
X9946735Y-22544307D01*
X9932450Y-22515736D01*
X9903878Y-22501450D01*
X9861021Y-22501450D01*
X9832450Y-22515736D01*
X9818164Y-22530022D01*
X10132450Y-22701450D02*
X10103878Y-22687165D01*
X10089593Y-22672879D01*
X10075307Y-22644307D01*
X10075307Y-22558593D01*
X10089593Y-22530022D01*
X10103878Y-22515736D01*
X10132450Y-22501450D01*
X10175307Y-22501450D01*
X10203878Y-22515736D01*
X10218164Y-22530022D01*
X10232450Y-22558593D01*
X10232450Y-22644307D01*
X10218164Y-22672879D01*
X10203878Y-22687165D01*
X10175307Y-22701450D01*
X10132450Y-22701450D01*
X10403878Y-22701450D02*
X10375307Y-22687165D01*
X10361021Y-22658593D01*
X10361021Y-22401450D01*
X10632450Y-22687165D02*
X10603878Y-22701450D01*
X10546735Y-22701450D01*
X10518164Y-22687165D01*
X10503878Y-22658593D01*
X10503878Y-22544307D01*
X10518164Y-22515736D01*
X10546735Y-22501450D01*
X10603878Y-22501450D01*
X10632450Y-22515736D01*
X10646735Y-22544307D01*
X10646735Y-22572879D01*
X10503878Y-22601450D01*
X10761021Y-22687165D02*
X10789593Y-22701450D01*
X10846735Y-22701450D01*
X10875307Y-22687165D01*
X10889593Y-22658593D01*
X10889593Y-22644307D01*
X10875307Y-22615736D01*
X10846735Y-22601450D01*
X10803878Y-22601450D01*
X10775307Y-22587165D01*
X10761021Y-22558593D01*
X10761021Y-22544307D01*
X10775307Y-22515736D01*
X10803878Y-22501450D01*
X10846735Y-22501450D01*
X10875307Y-22515736D01*
X10989593Y-22815736D02*
X11003878Y-22801450D01*
X11032450Y-22758593D01*
X11046735Y-22730022D01*
X11061021Y-22687165D01*
X11075307Y-22615736D01*
X11075307Y-22558593D01*
X11061021Y-22487165D01*
X11046735Y-22444307D01*
X11032450Y-22415736D01*
X11003878Y-22372879D01*
X10989593Y-22358593D01*
X4518164Y-22961736D02*
G75*
G03X4518164Y-22961736I-35000J0D01*
G01*
X4846735Y-22797450D02*
X4875307Y-22797450D01*
X4903878Y-22811736D01*
X4918164Y-22826022D01*
X4932450Y-22854593D01*
X4946735Y-22911736D01*
X4946735Y-22983165D01*
X4932450Y-23040307D01*
X4918164Y-23068879D01*
X4903878Y-23083165D01*
X4875307Y-23097450D01*
X4846735Y-23097450D01*
X4818164Y-23083165D01*
X4803878Y-23068879D01*
X4789593Y-23040307D01*
X4775307Y-22983165D01*
X4775307Y-22911736D01*
X4789593Y-22854593D01*
X4803878Y-22826022D01*
X4818164Y-22811736D01*
X4846735Y-22797450D01*
X5075307Y-23068879D02*
X5089593Y-23083165D01*
X5075307Y-23097450D01*
X5061021Y-23083165D01*
X5075307Y-23068879D01*
X5075307Y-23097450D01*
X5189593Y-22797450D02*
X5389593Y-22797450D01*
X5261021Y-23097450D01*
X5561021Y-22797450D02*
X5589593Y-22797450D01*
X5618164Y-22811736D01*
X5632450Y-22826022D01*
X5646735Y-22854593D01*
X5661021Y-22911736D01*
X5661021Y-22983165D01*
X5646735Y-23040307D01*
X5632450Y-23068879D01*
X5618164Y-23083165D01*
X5589593Y-23097450D01*
X5561021Y-23097450D01*
X5532450Y-23083165D01*
X5518164Y-23068879D01*
X5503878Y-23040307D01*
X5489593Y-22983165D01*
X5489593Y-22911736D01*
X5503878Y-22854593D01*
X5518164Y-22826022D01*
X5532450Y-22811736D01*
X5561021Y-22797450D01*
X5789593Y-23097450D02*
X5789593Y-22897450D01*
X5789593Y-22926022D02*
X5803878Y-22911736D01*
X5832450Y-22897450D01*
X5875307Y-22897450D01*
X5903878Y-22911736D01*
X5918164Y-22940307D01*
X5918164Y-23097450D01*
X5918164Y-22940307D02*
X5932450Y-22911736D01*
X5961021Y-22897450D01*
X6003878Y-22897450D01*
X6032450Y-22911736D01*
X6046735Y-22940307D01*
X6046735Y-23097450D01*
X6189593Y-23097450D02*
X6189593Y-22897450D01*
X6189593Y-22926022D02*
X6203878Y-22911736D01*
X6232450Y-22897450D01*
X6275307Y-22897450D01*
X6303878Y-22911736D01*
X6318164Y-22940307D01*
X6318164Y-23097450D01*
X6318164Y-22940307D02*
X6332450Y-22911736D01*
X6361021Y-22897450D01*
X6403878Y-22897450D01*
X6432450Y-22911736D01*
X6446735Y-22940307D01*
X6446735Y-23097450D01*
X7032450Y-22783165D02*
X6775307Y-23168879D01*
X7418164Y-22797450D02*
X7446735Y-22797450D01*
X7475307Y-22811736D01*
X7489592Y-22826022D01*
X7503878Y-22854593D01*
X7518164Y-22911736D01*
X7518164Y-22983165D01*
X7503878Y-23040307D01*
X7489592Y-23068879D01*
X7475307Y-23083165D01*
X7446735Y-23097450D01*
X7418164Y-23097450D01*
X7389592Y-23083165D01*
X7375307Y-23068879D01*
X7361021Y-23040307D01*
X7346735Y-22983165D01*
X7346735Y-22911736D01*
X7361021Y-22854593D01*
X7375307Y-22826022D01*
X7389592Y-22811736D01*
X7418164Y-22797450D01*
X7646735Y-23068879D02*
X7661021Y-23083165D01*
X7646735Y-23097450D01*
X7632450Y-23083165D01*
X7646735Y-23068879D01*
X7646735Y-23097450D01*
X7846735Y-22797450D02*
X7875307Y-22797450D01*
X7903878Y-22811736D01*
X7918164Y-22826022D01*
X7932450Y-22854593D01*
X7946735Y-22911736D01*
X7946735Y-22983165D01*
X7932450Y-23040307D01*
X7918164Y-23068879D01*
X7903878Y-23083165D01*
X7875307Y-23097450D01*
X7846735Y-23097450D01*
X7818164Y-23083165D01*
X7803878Y-23068879D01*
X7789592Y-23040307D01*
X7775307Y-22983165D01*
X7775307Y-22911736D01*
X7789592Y-22854593D01*
X7803878Y-22826022D01*
X7818164Y-22811736D01*
X7846735Y-22797450D01*
X8061021Y-22826022D02*
X8075307Y-22811736D01*
X8103878Y-22797450D01*
X8175307Y-22797450D01*
X8203878Y-22811736D01*
X8218164Y-22826022D01*
X8232450Y-22854593D01*
X8232450Y-22883165D01*
X8218164Y-22926022D01*
X8046735Y-23097450D01*
X8232450Y-23097450D01*
X8403878Y-22926022D02*
X8375307Y-22911736D01*
X8361021Y-22897450D01*
X8346735Y-22868879D01*
X8346735Y-22854593D01*
X8361021Y-22826022D01*
X8375307Y-22811736D01*
X8403878Y-22797450D01*
X8461021Y-22797450D01*
X8489593Y-22811736D01*
X8503878Y-22826022D01*
X8518164Y-22854593D01*
X8518164Y-22868879D01*
X8503878Y-22897450D01*
X8489593Y-22911736D01*
X8461021Y-22926022D01*
X8403878Y-22926022D01*
X8375307Y-22940307D01*
X8361021Y-22954593D01*
X8346735Y-22983165D01*
X8346735Y-23040307D01*
X8361021Y-23068879D01*
X8375307Y-23083165D01*
X8403878Y-23097450D01*
X8461021Y-23097450D01*
X8489593Y-23083165D01*
X8503878Y-23068879D01*
X8518164Y-23040307D01*
X8518164Y-22983165D01*
X8503878Y-22954593D01*
X8489593Y-22940307D01*
X8461021Y-22926022D01*
X8632450Y-22797450D02*
X8632450Y-22854593D01*
X8746735Y-22797450D02*
X8746735Y-22854593D01*
X9189593Y-23211736D02*
X9175307Y-23197450D01*
X9146735Y-23154593D01*
X9132450Y-23126022D01*
X9118164Y-23083165D01*
X9103878Y-23011736D01*
X9103878Y-22954593D01*
X9118164Y-22883165D01*
X9132450Y-22840307D01*
X9146735Y-22811736D01*
X9175307Y-22768879D01*
X9189593Y-22754593D01*
X9432450Y-22897450D02*
X9432450Y-23097450D01*
X9361021Y-22783165D02*
X9289593Y-22997450D01*
X9475307Y-22997450D01*
X9818164Y-23097450D02*
X9818164Y-22797450D01*
X9946735Y-23097450D02*
X9946735Y-22940307D01*
X9932450Y-22911736D01*
X9903878Y-22897450D01*
X9861021Y-22897450D01*
X9832450Y-22911736D01*
X9818164Y-22926022D01*
X10132450Y-23097450D02*
X10103878Y-23083165D01*
X10089593Y-23068879D01*
X10075307Y-23040307D01*
X10075307Y-22954593D01*
X10089593Y-22926022D01*
X10103878Y-22911736D01*
X10132450Y-22897450D01*
X10175307Y-22897450D01*
X10203878Y-22911736D01*
X10218164Y-22926022D01*
X10232450Y-22954593D01*
X10232450Y-23040307D01*
X10218164Y-23068879D01*
X10203878Y-23083165D01*
X10175307Y-23097450D01*
X10132450Y-23097450D01*
X10403878Y-23097450D02*
X10375307Y-23083165D01*
X10361021Y-23054593D01*
X10361021Y-22797450D01*
X10632450Y-23083165D02*
X10603878Y-23097450D01*
X10546735Y-23097450D01*
X10518164Y-23083165D01*
X10503878Y-23054593D01*
X10503878Y-22940307D01*
X10518164Y-22911736D01*
X10546735Y-22897450D01*
X10603878Y-22897450D01*
X10632450Y-22911736D01*
X10646735Y-22940307D01*
X10646735Y-22968879D01*
X10503878Y-22997450D01*
X10761021Y-23083165D02*
X10789593Y-23097450D01*
X10846735Y-23097450D01*
X10875307Y-23083165D01*
X10889593Y-23054593D01*
X10889593Y-23040307D01*
X10875307Y-23011736D01*
X10846735Y-22997450D01*
X10803878Y-22997450D01*
X10775307Y-22983165D01*
X10761021Y-22954593D01*
X10761021Y-22940307D01*
X10775307Y-22911736D01*
X10803878Y-22897450D01*
X10846735Y-22897450D01*
X10875307Y-22911736D01*
X10989593Y-23211736D02*
X11003878Y-23197450D01*
X11032450Y-23154593D01*
X11046735Y-23126022D01*
X11061021Y-23083165D01*
X11075307Y-23011736D01*
X11075307Y-22954593D01*
X11061021Y-22883165D01*
X11046735Y-22840307D01*
X11032450Y-22811736D01*
X11003878Y-22768879D01*
X10989593Y-22754593D01*
X4473664Y-23313236D02*
X4473664Y-23402236D01*
X4429164Y-23357736D02*
X4518164Y-23357736D01*
X4846735Y-23193450D02*
X4875307Y-23193450D01*
X4903878Y-23207736D01*
X4918164Y-23222022D01*
X4932450Y-23250593D01*
X4946735Y-23307736D01*
X4946735Y-23379165D01*
X4932450Y-23436307D01*
X4918164Y-23464879D01*
X4903878Y-23479165D01*
X4875307Y-23493450D01*
X4846735Y-23493450D01*
X4818164Y-23479165D01*
X4803878Y-23464879D01*
X4789593Y-23436307D01*
X4775307Y-23379165D01*
X4775307Y-23307736D01*
X4789593Y-23250593D01*
X4803878Y-23222022D01*
X4818164Y-23207736D01*
X4846735Y-23193450D01*
X5075307Y-23464879D02*
X5089593Y-23479165D01*
X5075307Y-23493450D01*
X5061021Y-23479165D01*
X5075307Y-23464879D01*
X5075307Y-23493450D01*
X5261021Y-23322022D02*
X5232450Y-23307736D01*
X5218164Y-23293450D01*
X5203878Y-23264879D01*
X5203878Y-23250593D01*
X5218164Y-23222022D01*
X5232450Y-23207736D01*
X5261021Y-23193450D01*
X5318164Y-23193450D01*
X5346735Y-23207736D01*
X5361021Y-23222022D01*
X5375307Y-23250593D01*
X5375307Y-23264879D01*
X5361021Y-23293450D01*
X5346735Y-23307736D01*
X5318164Y-23322022D01*
X5261021Y-23322022D01*
X5232450Y-23336307D01*
X5218164Y-23350593D01*
X5203878Y-23379165D01*
X5203878Y-23436307D01*
X5218164Y-23464879D01*
X5232450Y-23479165D01*
X5261021Y-23493450D01*
X5318164Y-23493450D01*
X5346735Y-23479165D01*
X5361021Y-23464879D01*
X5375307Y-23436307D01*
X5375307Y-23379165D01*
X5361021Y-23350593D01*
X5346735Y-23336307D01*
X5318164Y-23322022D01*
X5518164Y-23493450D02*
X5575307Y-23493450D01*
X5603878Y-23479165D01*
X5618164Y-23464879D01*
X5646735Y-23422022D01*
X5661021Y-23364879D01*
X5661021Y-23250593D01*
X5646735Y-23222022D01*
X5632450Y-23207736D01*
X5603878Y-23193450D01*
X5546735Y-23193450D01*
X5518164Y-23207736D01*
X5503878Y-23222022D01*
X5489593Y-23250593D01*
X5489593Y-23322022D01*
X5503878Y-23350593D01*
X5518164Y-23364879D01*
X5546735Y-23379165D01*
X5603878Y-23379165D01*
X5632450Y-23364879D01*
X5646735Y-23350593D01*
X5661021Y-23322022D01*
X5789593Y-23493450D02*
X5789593Y-23293450D01*
X5789593Y-23322022D02*
X5803878Y-23307736D01*
X5832450Y-23293450D01*
X5875307Y-23293450D01*
X5903878Y-23307736D01*
X5918164Y-23336307D01*
X5918164Y-23493450D01*
X5918164Y-23336307D02*
X5932450Y-23307736D01*
X5961021Y-23293450D01*
X6003878Y-23293450D01*
X6032450Y-23307736D01*
X6046735Y-23336307D01*
X6046735Y-23493450D01*
X6189593Y-23493450D02*
X6189593Y-23293450D01*
X6189593Y-23322022D02*
X6203878Y-23307736D01*
X6232450Y-23293450D01*
X6275307Y-23293450D01*
X6303878Y-23307736D01*
X6318164Y-23336307D01*
X6318164Y-23493450D01*
X6318164Y-23336307D02*
X6332450Y-23307736D01*
X6361021Y-23293450D01*
X6403878Y-23293450D01*
X6432450Y-23307736D01*
X6446735Y-23336307D01*
X6446735Y-23493450D01*
X7032450Y-23179165D02*
X6775307Y-23564879D01*
X7418164Y-23193450D02*
X7446735Y-23193450D01*
X7475307Y-23207736D01*
X7489592Y-23222022D01*
X7503878Y-23250593D01*
X7518164Y-23307736D01*
X7518164Y-23379165D01*
X7503878Y-23436307D01*
X7489592Y-23464879D01*
X7475307Y-23479165D01*
X7446735Y-23493450D01*
X7418164Y-23493450D01*
X7389592Y-23479165D01*
X7375307Y-23464879D01*
X7361021Y-23436307D01*
X7346735Y-23379165D01*
X7346735Y-23307736D01*
X7361021Y-23250593D01*
X7375307Y-23222022D01*
X7389592Y-23207736D01*
X7418164Y-23193450D01*
X7646735Y-23464879D02*
X7661021Y-23479165D01*
X7646735Y-23493450D01*
X7632450Y-23479165D01*
X7646735Y-23464879D01*
X7646735Y-23493450D01*
X7846735Y-23193450D02*
X7875307Y-23193450D01*
X7903878Y-23207736D01*
X7918164Y-23222022D01*
X7932450Y-23250593D01*
X7946735Y-23307736D01*
X7946735Y-23379165D01*
X7932450Y-23436307D01*
X7918164Y-23464879D01*
X7903878Y-23479165D01*
X7875307Y-23493450D01*
X7846735Y-23493450D01*
X7818164Y-23479165D01*
X7803878Y-23464879D01*
X7789592Y-23436307D01*
X7775307Y-23379165D01*
X7775307Y-23307736D01*
X7789592Y-23250593D01*
X7803878Y-23222022D01*
X7818164Y-23207736D01*
X7846735Y-23193450D01*
X8046735Y-23193450D02*
X8232450Y-23193450D01*
X8132450Y-23307736D01*
X8175307Y-23307736D01*
X8203878Y-23322022D01*
X8218164Y-23336307D01*
X8232450Y-23364879D01*
X8232450Y-23436307D01*
X8218164Y-23464879D01*
X8203878Y-23479165D01*
X8175307Y-23493450D01*
X8089592Y-23493450D01*
X8061021Y-23479165D01*
X8046735Y-23464879D01*
X8503878Y-23193450D02*
X8361021Y-23193450D01*
X8346735Y-23336307D01*
X8361021Y-23322022D01*
X8389593Y-23307736D01*
X8461021Y-23307736D01*
X8489593Y-23322022D01*
X8503878Y-23336307D01*
X8518164Y-23364879D01*
X8518164Y-23436307D01*
X8503878Y-23464879D01*
X8489593Y-23479165D01*
X8461021Y-23493450D01*
X8389593Y-23493450D01*
X8361021Y-23479165D01*
X8346735Y-23464879D01*
X8632450Y-23193450D02*
X8632450Y-23250593D01*
X8746735Y-23193450D02*
X8746735Y-23250593D01*
X9189593Y-23607736D02*
X9175307Y-23593450D01*
X9146735Y-23550593D01*
X9132450Y-23522022D01*
X9118164Y-23479165D01*
X9103878Y-23407736D01*
X9103878Y-23350593D01*
X9118164Y-23279165D01*
X9132450Y-23236307D01*
X9146735Y-23207736D01*
X9175307Y-23164879D01*
X9189593Y-23150593D01*
X9432450Y-23293450D02*
X9432450Y-23493450D01*
X9361021Y-23179165D02*
X9289593Y-23393450D01*
X9475307Y-23393450D01*
X9632450Y-23322022D02*
X9603878Y-23307736D01*
X9589593Y-23293450D01*
X9575307Y-23264879D01*
X9575307Y-23250593D01*
X9589593Y-23222022D01*
X9603878Y-23207736D01*
X9632450Y-23193450D01*
X9689593Y-23193450D01*
X9718164Y-23207736D01*
X9732450Y-23222022D01*
X9746735Y-23250593D01*
X9746735Y-23264879D01*
X9732450Y-23293450D01*
X9718164Y-23307736D01*
X9689593Y-23322022D01*
X9632450Y-23322022D01*
X9603878Y-23336307D01*
X9589593Y-23350593D01*
X9575307Y-23379165D01*
X9575307Y-23436307D01*
X9589593Y-23464879D01*
X9603878Y-23479165D01*
X9632450Y-23493450D01*
X9689593Y-23493450D01*
X9718164Y-23479165D01*
X9732450Y-23464879D01*
X9746735Y-23436307D01*
X9746735Y-23379165D01*
X9732450Y-23350593D01*
X9718164Y-23336307D01*
X9689593Y-23322022D01*
X10103878Y-23493450D02*
X10103878Y-23193450D01*
X10232450Y-23493450D02*
X10232450Y-23336307D01*
X10218164Y-23307736D01*
X10189593Y-23293450D01*
X10146735Y-23293450D01*
X10118164Y-23307736D01*
X10103878Y-23322022D01*
X10418164Y-23493450D02*
X10389593Y-23479165D01*
X10375307Y-23464879D01*
X10361021Y-23436307D01*
X10361021Y-23350593D01*
X10375307Y-23322022D01*
X10389593Y-23307736D01*
X10418164Y-23293450D01*
X10461021Y-23293450D01*
X10489593Y-23307736D01*
X10503878Y-23322022D01*
X10518164Y-23350593D01*
X10518164Y-23436307D01*
X10503878Y-23464879D01*
X10489593Y-23479165D01*
X10461021Y-23493450D01*
X10418164Y-23493450D01*
X10689593Y-23493450D02*
X10661021Y-23479165D01*
X10646735Y-23450593D01*
X10646735Y-23193450D01*
X10918164Y-23479165D02*
X10889593Y-23493450D01*
X10832450Y-23493450D01*
X10803878Y-23479165D01*
X10789593Y-23450593D01*
X10789593Y-23336307D01*
X10803878Y-23307736D01*
X10832450Y-23293450D01*
X10889593Y-23293450D01*
X10918164Y-23307736D01*
X10932450Y-23336307D01*
X10932450Y-23364879D01*
X10789593Y-23393450D01*
X11046736Y-23479165D02*
X11075307Y-23493450D01*
X11132450Y-23493450D01*
X11161021Y-23479165D01*
X11175307Y-23450593D01*
X11175307Y-23436307D01*
X11161021Y-23407736D01*
X11132450Y-23393450D01*
X11089593Y-23393450D01*
X11061021Y-23379165D01*
X11046736Y-23350593D01*
X11046736Y-23336307D01*
X11061021Y-23307736D01*
X11089593Y-23293450D01*
X11132450Y-23293450D01*
X11161021Y-23307736D01*
X11275307Y-23607736D02*
X11289593Y-23593450D01*
X11318164Y-23550593D01*
X11332450Y-23522022D01*
X11346735Y-23479165D01*
X11361021Y-23407736D01*
X11361021Y-23350593D01*
X11346735Y-23279165D01*
X11332450Y-23236307D01*
X11318164Y-23207736D01*
X11289593Y-23164879D01*
X11275307Y-23150593D01*
X4495172Y-23809244D02*
X4495172Y-23698228D01*
X4384156Y-23698228D01*
X4384156Y-23809244D01*
X4495172Y-23809244D01*
X4946735Y-23889450D02*
X4775307Y-23889450D01*
X4861021Y-23889450D02*
X4861021Y-23589450D01*
X4832450Y-23632307D01*
X4803878Y-23660879D01*
X4775307Y-23675165D01*
X5075307Y-23860879D02*
X5089593Y-23875165D01*
X5075307Y-23889450D01*
X5061021Y-23875165D01*
X5075307Y-23860879D01*
X5075307Y-23889450D01*
X5361021Y-23589450D02*
X5218164Y-23589450D01*
X5203878Y-23732307D01*
X5218164Y-23718022D01*
X5246735Y-23703736D01*
X5318164Y-23703736D01*
X5346735Y-23718022D01*
X5361021Y-23732307D01*
X5375307Y-23760879D01*
X5375307Y-23832307D01*
X5361021Y-23860879D01*
X5346735Y-23875165D01*
X5318164Y-23889450D01*
X5246735Y-23889450D01*
X5218164Y-23875165D01*
X5203878Y-23860879D01*
X5475307Y-23589450D02*
X5675307Y-23589450D01*
X5546735Y-23889450D01*
X5789593Y-23889450D02*
X5789593Y-23689450D01*
X5789593Y-23718022D02*
X5803878Y-23703736D01*
X5832450Y-23689450D01*
X5875307Y-23689450D01*
X5903878Y-23703736D01*
X5918164Y-23732307D01*
X5918164Y-23889450D01*
X5918164Y-23732307D02*
X5932450Y-23703736D01*
X5961021Y-23689450D01*
X6003878Y-23689450D01*
X6032450Y-23703736D01*
X6046735Y-23732307D01*
X6046735Y-23889450D01*
X6189593Y-23889450D02*
X6189593Y-23689450D01*
X6189593Y-23718022D02*
X6203878Y-23703736D01*
X6232450Y-23689450D01*
X6275307Y-23689450D01*
X6303878Y-23703736D01*
X6318164Y-23732307D01*
X6318164Y-23889450D01*
X6318164Y-23732307D02*
X6332450Y-23703736D01*
X6361021Y-23689450D01*
X6403878Y-23689450D01*
X6432450Y-23703736D01*
X6446735Y-23732307D01*
X6446735Y-23889450D01*
X7032450Y-23575165D02*
X6775307Y-23960879D01*
X7418164Y-23589450D02*
X7446735Y-23589450D01*
X7475307Y-23603736D01*
X7489592Y-23618022D01*
X7503878Y-23646593D01*
X7518164Y-23703736D01*
X7518164Y-23775165D01*
X7503878Y-23832307D01*
X7489592Y-23860879D01*
X7475307Y-23875165D01*
X7446735Y-23889450D01*
X7418164Y-23889450D01*
X7389592Y-23875165D01*
X7375307Y-23860879D01*
X7361021Y-23832307D01*
X7346735Y-23775165D01*
X7346735Y-23703736D01*
X7361021Y-23646593D01*
X7375307Y-23618022D01*
X7389592Y-23603736D01*
X7418164Y-23589450D01*
X7646735Y-23860879D02*
X7661021Y-23875165D01*
X7646735Y-23889450D01*
X7632450Y-23875165D01*
X7646735Y-23860879D01*
X7646735Y-23889450D01*
X7846735Y-23589450D02*
X7875307Y-23589450D01*
X7903878Y-23603736D01*
X7918164Y-23618022D01*
X7932450Y-23646593D01*
X7946735Y-23703736D01*
X7946735Y-23775165D01*
X7932450Y-23832307D01*
X7918164Y-23860879D01*
X7903878Y-23875165D01*
X7875307Y-23889450D01*
X7846735Y-23889450D01*
X7818164Y-23875165D01*
X7803878Y-23860879D01*
X7789592Y-23832307D01*
X7775307Y-23775165D01*
X7775307Y-23703736D01*
X7789592Y-23646593D01*
X7803878Y-23618022D01*
X7818164Y-23603736D01*
X7846735Y-23589450D01*
X8203878Y-23589450D02*
X8146735Y-23589450D01*
X8118164Y-23603736D01*
X8103878Y-23618022D01*
X8075307Y-23660879D01*
X8061021Y-23718022D01*
X8061021Y-23832307D01*
X8075307Y-23860879D01*
X8089592Y-23875165D01*
X8118164Y-23889450D01*
X8175307Y-23889450D01*
X8203878Y-23875165D01*
X8218164Y-23860879D01*
X8232450Y-23832307D01*
X8232450Y-23760879D01*
X8218164Y-23732307D01*
X8203878Y-23718022D01*
X8175307Y-23703736D01*
X8118164Y-23703736D01*
X8089592Y-23718022D01*
X8075307Y-23732307D01*
X8061021Y-23760879D01*
X8346735Y-23618022D02*
X8361021Y-23603736D01*
X8389593Y-23589450D01*
X8461021Y-23589450D01*
X8489593Y-23603736D01*
X8503878Y-23618022D01*
X8518164Y-23646593D01*
X8518164Y-23675165D01*
X8503878Y-23718022D01*
X8332450Y-23889450D01*
X8518164Y-23889450D01*
X8632450Y-23589450D02*
X8632450Y-23646593D01*
X8746735Y-23589450D02*
X8746735Y-23646593D01*
X9189593Y-24003736D02*
X9175307Y-23989450D01*
X9146735Y-23946593D01*
X9132450Y-23918022D01*
X9118164Y-23875165D01*
X9103878Y-23803736D01*
X9103878Y-23746593D01*
X9118164Y-23675165D01*
X9132450Y-23632307D01*
X9146735Y-23603736D01*
X9175307Y-23560879D01*
X9189593Y-23546593D01*
X9346735Y-23718022D02*
X9318164Y-23703736D01*
X9303878Y-23689450D01*
X9289593Y-23660879D01*
X9289593Y-23646593D01*
X9303878Y-23618022D01*
X9318164Y-23603736D01*
X9346735Y-23589450D01*
X9403878Y-23589450D01*
X9432450Y-23603736D01*
X9446735Y-23618022D01*
X9461021Y-23646593D01*
X9461021Y-23660879D01*
X9446735Y-23689450D01*
X9432450Y-23703736D01*
X9403878Y-23718022D01*
X9346735Y-23718022D01*
X9318164Y-23732307D01*
X9303878Y-23746593D01*
X9289593Y-23775165D01*
X9289593Y-23832307D01*
X9303878Y-23860879D01*
X9318164Y-23875165D01*
X9346735Y-23889450D01*
X9403878Y-23889450D01*
X9432450Y-23875165D01*
X9446735Y-23860879D01*
X9461021Y-23832307D01*
X9461021Y-23775165D01*
X9446735Y-23746593D01*
X9432450Y-23732307D01*
X9403878Y-23718022D01*
X9818164Y-23889450D02*
X9818164Y-23589450D01*
X9946735Y-23889450D02*
X9946735Y-23732307D01*
X9932450Y-23703736D01*
X9903878Y-23689450D01*
X9861021Y-23689450D01*
X9832450Y-23703736D01*
X9818164Y-23718022D01*
X10132450Y-23889450D02*
X10103878Y-23875165D01*
X10089593Y-23860879D01*
X10075307Y-23832307D01*
X10075307Y-23746593D01*
X10089593Y-23718022D01*
X10103878Y-23703736D01*
X10132450Y-23689450D01*
X10175307Y-23689450D01*
X10203878Y-23703736D01*
X10218164Y-23718022D01*
X10232450Y-23746593D01*
X10232450Y-23832307D01*
X10218164Y-23860879D01*
X10203878Y-23875165D01*
X10175307Y-23889450D01*
X10132450Y-23889450D01*
X10403878Y-23889450D02*
X10375307Y-23875165D01*
X10361021Y-23846593D01*
X10361021Y-23589450D01*
X10632450Y-23875165D02*
X10603878Y-23889450D01*
X10546735Y-23889450D01*
X10518164Y-23875165D01*
X10503878Y-23846593D01*
X10503878Y-23732307D01*
X10518164Y-23703736D01*
X10546735Y-23689450D01*
X10603878Y-23689450D01*
X10632450Y-23703736D01*
X10646735Y-23732307D01*
X10646735Y-23760879D01*
X10503878Y-23789450D01*
X10761021Y-23875165D02*
X10789593Y-23889450D01*
X10846735Y-23889450D01*
X10875307Y-23875165D01*
X10889593Y-23846593D01*
X10889593Y-23832307D01*
X10875307Y-23803736D01*
X10846735Y-23789450D01*
X10803878Y-23789450D01*
X10775307Y-23775165D01*
X10761021Y-23746593D01*
X10761021Y-23732307D01*
X10775307Y-23703736D01*
X10803878Y-23689450D01*
X10846735Y-23689450D01*
X10875307Y-23703736D01*
X10989593Y-24003736D02*
X11003878Y-23989450D01*
X11032450Y-23946593D01*
X11046735Y-23918022D01*
X11061021Y-23875165D01*
X11075307Y-23803736D01*
X11075307Y-23746593D01*
X11061021Y-23675165D01*
X11046735Y-23632307D01*
X11032450Y-23603736D01*
X11003878Y-23560879D01*
X10989593Y-23546593D01*
X4353164Y-24314736D02*
X4518164Y-24149736D01*
X4353164Y-23984736D01*
X4188164Y-24149736D01*
X4353164Y-24314736D01*
X4761021Y-23985450D02*
X4946735Y-23985450D01*
X4846735Y-24099736D01*
X4889593Y-24099736D01*
X4918164Y-24114022D01*
X4932450Y-24128307D01*
X4946735Y-24156879D01*
X4946735Y-24228307D01*
X4932450Y-24256879D01*
X4918164Y-24271165D01*
X4889593Y-24285450D01*
X4803878Y-24285450D01*
X4775307Y-24271165D01*
X4761021Y-24256879D01*
X5075307Y-24256879D02*
X5089593Y-24271165D01*
X5075307Y-24285450D01*
X5061021Y-24271165D01*
X5075307Y-24256879D01*
X5075307Y-24285450D01*
X5189593Y-23985450D02*
X5375307Y-23985450D01*
X5275307Y-24099736D01*
X5318164Y-24099736D01*
X5346735Y-24114022D01*
X5361021Y-24128307D01*
X5375307Y-24156879D01*
X5375307Y-24228307D01*
X5361021Y-24256879D01*
X5346735Y-24271165D01*
X5318164Y-24285450D01*
X5232450Y-24285450D01*
X5203878Y-24271165D01*
X5189593Y-24256879D01*
X5561021Y-23985450D02*
X5589593Y-23985450D01*
X5618164Y-23999736D01*
X5632450Y-24014022D01*
X5646735Y-24042593D01*
X5661021Y-24099736D01*
X5661021Y-24171165D01*
X5646735Y-24228307D01*
X5632450Y-24256879D01*
X5618164Y-24271165D01*
X5589593Y-24285450D01*
X5561021Y-24285450D01*
X5532450Y-24271165D01*
X5518164Y-24256879D01*
X5503878Y-24228307D01*
X5489593Y-24171165D01*
X5489593Y-24099736D01*
X5503878Y-24042593D01*
X5518164Y-24014022D01*
X5532450Y-23999736D01*
X5561021Y-23985450D01*
X5789593Y-24285450D02*
X5789593Y-24085450D01*
X5789593Y-24114022D02*
X5803878Y-24099736D01*
X5832450Y-24085450D01*
X5875307Y-24085450D01*
X5903878Y-24099736D01*
X5918164Y-24128307D01*
X5918164Y-24285450D01*
X5918164Y-24128307D02*
X5932450Y-24099736D01*
X5961021Y-24085450D01*
X6003878Y-24085450D01*
X6032450Y-24099736D01*
X6046735Y-24128307D01*
X6046735Y-24285450D01*
X6189593Y-24285450D02*
X6189593Y-24085450D01*
X6189593Y-24114022D02*
X6203878Y-24099736D01*
X6232450Y-24085450D01*
X6275307Y-24085450D01*
X6303878Y-24099736D01*
X6318164Y-24128307D01*
X6318164Y-24285450D01*
X6318164Y-24128307D02*
X6332450Y-24099736D01*
X6361021Y-24085450D01*
X6403878Y-24085450D01*
X6432450Y-24099736D01*
X6446735Y-24128307D01*
X6446735Y-24285450D01*
X7032450Y-23971165D02*
X6775307Y-24356879D01*
X7418164Y-23985450D02*
X7446735Y-23985450D01*
X7475307Y-23999736D01*
X7489592Y-24014022D01*
X7503878Y-24042593D01*
X7518164Y-24099736D01*
X7518164Y-24171165D01*
X7503878Y-24228307D01*
X7489592Y-24256879D01*
X7475307Y-24271165D01*
X7446735Y-24285450D01*
X7418164Y-24285450D01*
X7389592Y-24271165D01*
X7375307Y-24256879D01*
X7361021Y-24228307D01*
X7346735Y-24171165D01*
X7346735Y-24099736D01*
X7361021Y-24042593D01*
X7375307Y-24014022D01*
X7389592Y-23999736D01*
X7418164Y-23985450D01*
X7646735Y-24256879D02*
X7661021Y-24271165D01*
X7646735Y-24285450D01*
X7632450Y-24271165D01*
X7646735Y-24256879D01*
X7646735Y-24285450D01*
X7946735Y-24285450D02*
X7775307Y-24285450D01*
X7861021Y-24285450D02*
X7861021Y-23985450D01*
X7832450Y-24028307D01*
X7803878Y-24056879D01*
X7775307Y-24071165D01*
X8046735Y-23985450D02*
X8232450Y-23985450D01*
X8132450Y-24099736D01*
X8175307Y-24099736D01*
X8203878Y-24114022D01*
X8218164Y-24128307D01*
X8232450Y-24156879D01*
X8232450Y-24228307D01*
X8218164Y-24256879D01*
X8203878Y-24271165D01*
X8175307Y-24285450D01*
X8089592Y-24285450D01*
X8061021Y-24271165D01*
X8046735Y-24256879D01*
X8418164Y-23985450D02*
X8446735Y-23985450D01*
X8475307Y-23999736D01*
X8489593Y-24014022D01*
X8503878Y-24042593D01*
X8518164Y-24099736D01*
X8518164Y-24171165D01*
X8503878Y-24228307D01*
X8489593Y-24256879D01*
X8475307Y-24271165D01*
X8446735Y-24285450D01*
X8418164Y-24285450D01*
X8389593Y-24271165D01*
X8375307Y-24256879D01*
X8361021Y-24228307D01*
X8346735Y-24171165D01*
X8346735Y-24099736D01*
X8361021Y-24042593D01*
X8375307Y-24014022D01*
X8389593Y-23999736D01*
X8418164Y-23985450D01*
X8632450Y-23985450D02*
X8632450Y-24042593D01*
X8746735Y-23985450D02*
X8746735Y-24042593D01*
X9189593Y-24399736D02*
X9175307Y-24385450D01*
X9146735Y-24342593D01*
X9132450Y-24314022D01*
X9118164Y-24271165D01*
X9103878Y-24199736D01*
X9103878Y-24142593D01*
X9118164Y-24071165D01*
X9132450Y-24028307D01*
X9146735Y-23999736D01*
X9175307Y-23956879D01*
X9189593Y-23942593D01*
X9346735Y-24114022D02*
X9318164Y-24099736D01*
X9303878Y-24085450D01*
X9289593Y-24056879D01*
X9289593Y-24042593D01*
X9303878Y-24014022D01*
X9318164Y-23999736D01*
X9346735Y-23985450D01*
X9403878Y-23985450D01*
X9432450Y-23999736D01*
X9446735Y-24014022D01*
X9461021Y-24042593D01*
X9461021Y-24056879D01*
X9446735Y-24085450D01*
X9432450Y-24099736D01*
X9403878Y-24114022D01*
X9346735Y-24114022D01*
X9318164Y-24128307D01*
X9303878Y-24142593D01*
X9289593Y-24171165D01*
X9289593Y-24228307D01*
X9303878Y-24256879D01*
X9318164Y-24271165D01*
X9346735Y-24285450D01*
X9403878Y-24285450D01*
X9432450Y-24271165D01*
X9446735Y-24256879D01*
X9461021Y-24228307D01*
X9461021Y-24171165D01*
X9446735Y-24142593D01*
X9432450Y-24128307D01*
X9403878Y-24114022D01*
X9818164Y-24285450D02*
X9818164Y-23985450D01*
X9946735Y-24285450D02*
X9946735Y-24128307D01*
X9932450Y-24099736D01*
X9903878Y-24085450D01*
X9861021Y-24085450D01*
X9832450Y-24099736D01*
X9818164Y-24114022D01*
X10132450Y-24285450D02*
X10103878Y-24271165D01*
X10089593Y-24256879D01*
X10075307Y-24228307D01*
X10075307Y-24142593D01*
X10089593Y-24114022D01*
X10103878Y-24099736D01*
X10132450Y-24085450D01*
X10175307Y-24085450D01*
X10203878Y-24099736D01*
X10218164Y-24114022D01*
X10232450Y-24142593D01*
X10232450Y-24228307D01*
X10218164Y-24256879D01*
X10203878Y-24271165D01*
X10175307Y-24285450D01*
X10132450Y-24285450D01*
X10403878Y-24285450D02*
X10375307Y-24271165D01*
X10361021Y-24242593D01*
X10361021Y-23985450D01*
X10632450Y-24271165D02*
X10603878Y-24285450D01*
X10546735Y-24285450D01*
X10518164Y-24271165D01*
X10503878Y-24242593D01*
X10503878Y-24128307D01*
X10518164Y-24099736D01*
X10546735Y-24085450D01*
X10603878Y-24085450D01*
X10632450Y-24099736D01*
X10646735Y-24128307D01*
X10646735Y-24156879D01*
X10503878Y-24185450D01*
X10761021Y-24271165D02*
X10789593Y-24285450D01*
X10846735Y-24285450D01*
X10875307Y-24271165D01*
X10889593Y-24242593D01*
X10889593Y-24228307D01*
X10875307Y-24199736D01*
X10846735Y-24185450D01*
X10803878Y-24185450D01*
X10775307Y-24171165D01*
X10761021Y-24142593D01*
X10761021Y-24128307D01*
X10775307Y-24099736D01*
X10803878Y-24085450D01*
X10846735Y-24085450D01*
X10875307Y-24099736D01*
X10989593Y-24399736D02*
X11003878Y-24385450D01*
X11032450Y-24342593D01*
X11046735Y-24314022D01*
X11061021Y-24271165D01*
X11075307Y-24199736D01*
X11075307Y-24142593D01*
X11061021Y-24071165D01*
X11046735Y-24028307D01*
X11032450Y-23999736D01*
X11003878Y-23956879D01*
X10989593Y-23942593D01*
M02*
